<?xml version="1.0" encoding="utf-8"?>
<!-- Generator: Adobe Illustrator 21.0.0, SVG Export Plug-In . SVG Version: 6.00 Build 0)  -->
<svg version="1.1" id="图层_1" xmlns="http://www.w3.org/2000/svg" xmlns:xlink="http://www.w3.org/1999/xlink" x="0px" y="0px"
	 viewBox="0 0 340 86.6" style="enable-background:new 0 0 340 86.6;" xml:space="preserve">
<style type="text/css">
	.st0{fill:#FFFFFF;}
</style>
<g>
	<path class="st0" d="M257.7,19.7c0.1,0.3,0.4,0.5,0.7,0.5h7.7c0.6,0,1-0.6,0.7-1.1l-3.4-7.4c-0.1-0.3-0.4-0.5-0.7-0.5H255
		c-0.6,0-1,0.6-0.7,1.1L257.7,19.7z"/>
	<path class="st0" d="M257.7,33c0.1,0.3,0.4,0.5,0.7,0.5h7.7c0.6,0,1-0.6,0.7-1.1l-3.4-7.4c-0.1-0.3-0.4-0.5-0.7-0.5H255
		c-0.6,0-1,0.6-0.7,1.1L257.7,33z"/>
	<path class="st0" d="M225.1,46.6h-9.9l4.5-23.7c0.1-0.4-0.2-0.8-0.6-0.9l-4.8-1.2c-0.4-0.1-0.9,0.2-1,0.6l-4.8,25.2H191
		c-0.4,0-0.8,0.4-0.8,0.8v4.7c0,0.4,0.4,0.8,0.8,0.8h34.1c0.4,0,0.8-0.4,0.8-0.8v-4.7C225.9,47,225.5,46.6,225.1,46.6z"/>
	<path class="st0" d="M129.8,11.5h-7c0.2-0.5,0.4-0.9,0.5-1.2c0.1-0.3,0-0.6-0.2-0.8l-3.8-3.9c-0.4-0.4-1.1-0.3-1.3,0.3
		c-1.2,2.9-4.8,10.9-11.3,17.8c-0.3,0.3-0.3,0.8,0,1.1l4.1,3.9c0.3,0.3,0.8,0.3,1.1,0c0.1-0.1,0.1-0.2,0.2-0.2h4.2v5.1h-7.1
		c-0.7,0-1,0.8-0.6,1.3l3.7,4.7c0.2,0.2,0.4,0.3,0.6,0.3h3.4v10.9c0,0.1,0,0.1,0,0.2v5.3c0,0.6,0.6,1,1.1,0.7l10.1-4.7
		c0.3-0.1,0.5-0.4,0.5-0.7v-5.3c0-0.6-0.6-1-1.1-0.7l-4.2,2v-7.7h7.1c0.4,0,0.8-0.4,0.8-0.8v-4.7c0-0.4-0.4-0.8-0.8-0.8h-7.1v-5.1h7
		c0.5,0,0.8-0.4,0.8-0.8v-4.6c0-0.5-0.4-0.8-0.8-0.8h-12.6c1-1.5,1.9-3,2.6-4.3h10c0.4,0,0.8-0.4,0.8-0.8v-4.7
		C130.6,11.9,130.2,11.5,129.8,11.5z"/>
	<path class="st0" d="M193.9,40.1l-10.2-10h8.3c0.4,0,0.8-0.4,0.8-0.8v-4.7c0-0.4-0.4-0.8-0.8-0.8h-8.5v-2.2c0.1,0,0.1,0.1,0.2,0.1
		l4.5,1.5c0.4,0.1,0.9-0.1,1-0.5l3.5-10.8c0.1-0.4-0.1-0.9-0.5-1l-4.5-1.5c-0.4-0.1-0.9,0.1-1,0.5l-3.2,9.9V6.9
		c0-0.4-0.4-0.8-0.8-0.8h-4.7c-0.4,0-0.8,0.4-0.8,0.8v16.9h-10.7c-0.4,0-0.8,0.4-0.8,0.8v4.7c0,0.4,0.4,0.8,0.8,0.8h8.1
		c-0.3,0-0.5,0.2-0.7,0.4l-9.4,16.1c-0.3,0.5,0.1,1.2,0.7,1.2h5.7c0.3,0,0.5-0.2,0.7-0.4l5.6-9.6v18.4c0,0.4,0.4,0.8,0.8,0.8h4.7
		c0.4,0,0.8-0.4,0.8-0.8V38.9l4.5,4.4c0.2,0.2,0.6,0.3,0.9,0.2l4.8-2.1C194.1,41.2,194.3,40.5,193.9,40.1z"/>
	<path class="st0" d="M171,23.1c0.1,0.4,0.6,0.6,1,0.5l4.5-1.6c0.4-0.1,0.6-0.6,0.5-1l-3.8-10.7c-0.1-0.4-0.6-0.6-1-0.5l-4.5,1.6
		c-0.4,0.1-0.6,0.6-0.5,1L171,23.1z"/>
	<path class="st0" d="M150.4,13.4c0.2,0.3,0.5,0.4,0.8,0.4l6.7-0.7c0.6-0.1,0.9-0.7,0.6-1.2l-2.6-4.6c-0.2-0.3-0.5-0.4-0.8-0.4
		l-6.7,0.7c-0.6,0.1-0.9,0.7-0.6,1.2L150.4,13.4z"/>
	<path class="st0" d="M201.6,22.3l-4.5,1.2c-0.4,0.1-0.6,0.5-0.6,0.9l3.1,19.3c0.1,0.5,0.5,0.7,1,0.7l4.5-1c0.4-0.1,0.7-0.5,0.6-0.9
		l-3.2-19.6C202.5,22.5,202.1,22.2,201.6,22.3z"/>
	<path class="st0" d="M281.5,32.2l-5,1V6.9c0-0.4-0.4-0.8-0.8-0.8H271c-0.4,0-0.8,0.4-0.8,0.8v27.6l-17.6,3.6
		c-0.3,0.1-0.6,0-0.7-0.2l-7.5-8.2v-4.4h7.2c0.4,0,0.7-0.2,0.8-0.6l1.2-4.7c0.1-0.5-0.2-1-0.8-1h-8.4v-5.2l6.8-1.3
		c0.4-0.1,0.7-0.4,0.7-0.8V7.1c0-0.5-0.5-0.9-0.9-0.8l-20.7,3.8c-0.4,0.1-0.7,0.4-0.7,0.8v4.7c0,0.5,0.5,0.9,0.9,0.8l7.6-1.4v4h-8.4
		c-0.4,0-0.7,0.2-0.8,0.6l-1.2,4.7c-0.1,0.5,0.2,1,0.8,1h7.8l-9.3,19.2c-0.2,0.5,0.1,1.1,0.7,1.1l5,0.4c0.3,0,0.6-0.1,0.8-0.4
		l4.7-9.6v20.3c0,0.4,0.4,0.8,0.8,0.8h4.7c0.4,0,0.8-0.4,0.8-0.8V38.9l5.3,5.7c0.2,0.2,0.5,0.3,0.8,0.2l19.9-4.1v15.5
		c0,0.4,0.4,0.8,0.8,0.8h4.7c0.4,0,0.8-0.4,0.8-0.8V39.4l4.1-0.8c0.3-0.1,0.5-0.3,0.6-0.6l1.3-4.9C282.6,32.6,282.1,32,281.5,32.2z"
		/>
	<path class="st0" d="M305,27.3l-5.8,1.2v-7.6h5.8c0.4,0,0.8-0.4,0.8-0.8v-4.7c0-0.4-0.4-0.8-0.8-0.8h-5.8V6.8
		c0-0.4-0.4-0.8-0.8-0.8h-4.7c-0.4,0-0.8,0.4-0.8,0.8v7.8h-7.8c-0.4,0-0.8,0.4-0.8,0.8v4.7c0,0.4,0.4,0.8,0.8,0.8h7.8v8.9l-7.7,1.6
		c-0.3,0.1-0.5,0.3-0.6,0.6l-1.3,4.9c-0.2,0.6,0.4,1.1,0.9,1l8.7-1.8v14.6h-6.2c-0.7,0-1,0.8-0.6,1.3l3.8,4.8
		c0.2,0.2,0.4,0.3,0.6,0.3h3.2h4.7h0c0.4,0,0.8-0.4,0.8-0.8v-4.8c0,0,0-0.1,0-0.1V34.8l4.8-1c0.3-0.1,0.5-0.3,0.6-0.6l1.3-4.9
		C306.1,27.8,305.6,27.2,305,27.3z"/>
	<path class="st0" d="M193.2,18.6h13.3h7.1h8.5c0.4,0,0.7-0.2,0.8-0.6l1.2-4.7c0.1-0.5-0.2-1-0.8-1h-10.6l-1.4-4.5
		c-0.1-0.3-0.4-0.6-0.8-0.6h-7.1c-0.5,0-0.9,0.5-0.8,1l1.2,4h-9.5c-0.4,0-0.7,0.2-0.8,0.6l-1.2,4.7
		C192.3,18.1,192.7,18.6,193.2,18.6z"/>
	<path class="st0" d="M161.6,51c-4.1,0.3-7.2-1.5-9.5-4.5l6.8-3.1c0.3-0.1,0.4-0.3,0.5-0.6l0.7-5.6c0.1-0.6-0.6-1.1-1.1-0.8
		l-9.9,4.5c-0.9-2.4-1.6-5-2.1-7.7l14.7-1.5c0.6-0.1,0.9-0.7,0.6-1.2l-2.7-4.4c-0.2-0.3-0.5-0.4-0.8-0.4L146.1,27
		c-0.1-1.2-0.2-2.3-0.3-3.5l15.3-1.4c0.6-0.1,0.9-0.6,0.6-1.1l-2.2-4.5c-0.1-0.3-0.5-0.5-0.8-0.4l-13.3,1.2c-0.1-4.3,0-8,0-10.3
		c0-0.4-0.3-0.8-0.7-0.8l-4.7,0c-0.5,0-0.9,0.3-0.9,0.8c-0.1,3.9-0.1,7.6,0,10.9l-7.2,0.7c-0.4,0-0.7,0.4-0.7,0.8v4.7
		c0,0.5,0.4,0.8,0.9,0.8l7.4-0.7c0.1,1.2,0.2,2.4,0.3,3.6l-7.6,0.8c-0.4,0-0.7,0.4-0.7,0.8v4.7c0,0.5,0.4,0.8,0.9,0.8l8.4-0.9
		c0.7,3.8,1.6,7,2.6,9.6l-9.5,4.3c-0.3,0.1-0.5,0.4-0.5,0.7v5.2c0,0.6,0.6,1,1.1,0.7l11.6-5.3c4.4,6.9,9.9,7.8,13.2,7.9
		c0.3,0,0.6-0.2,0.7-0.4l2.2-4.5C162.7,51.5,162.3,50.9,161.6,51z"/>
	<path class="st0" d="M339.2,50.7c-4.3-0.1-7.9-1.2-11-2.8c5.6-5.3,9-11.9,9-17.1v-5.5c0-0.4-0.4-0.8-0.8-0.8h-10.6v-5.9h11.8
		c0.4,0,0.8-0.4,0.8-0.8v-4.7c0-0.4-0.4-0.8-0.8-0.8h-11.8V6.8c0-0.4-0.4-0.8-0.8-0.8h-4.7c-0.4,0-0.8,0.4-0.8,0.8v5.5h-12.1
		c-0.4,0-0.8,0.4-0.8,0.8v4.7c0,0.4,0.4,0.8,0.8,0.8h12.1v5.9h-11c-0.4,0-0.8,0.4-0.8,0.8V30c0,0.4,0.4,0.8,0.8,0.8h22.2
		c0,3.2-2.9,8.9-8,13.4c-4.9-4.3-7.5-9.4-8.4-11.3c-0.2-0.4-0.6-0.6-1-0.4l-4.4,1.7c-0.4,0.2-0.6,0.7-0.4,1.1
		c0.9,2,3.7,7.6,8.9,12.6c-3.1,1.6-6.6,2.7-10.5,2.8c-0.4,0-0.8,0.4-0.8,0.8v4.7c0,0.4,0.4,0.8,0.8,0.8c5.9-0.2,11.2-2.1,15.7-4.9
		c4.3,2.8,9.7,4.8,16.4,5c0.4,0,0.8-0.4,0.8-0.8v-4.7C340,51.1,339.6,50.7,339.2,50.7z"/>
</g>
<g>
	<path class="st0" d="M128.2,75.4c0-2.2-0.6-3.9-1.8-5.3c-1.3-1.5-2.9-2.2-5.1-2.2c-2.1,0-3.8,0.7-5.1,2.2c-1.2,1.4-1.8,3.1-1.8,5.3
		c0,2.2,0.6,3.9,1.8,5.3c1.2,1.5,2.9,2.2,5.1,2.2c1.6,0,2.9-0.4,4-1.2c0.4,0.5,1,1.3,1.7,2.3l0.8-0.7c-0.6-0.9-1.2-1.7-1.7-2.3
		l0.2-0.2C127.7,79.4,128.2,77.6,128.2,75.4z M125.6,80C125.5,80,125.5,80,125.6,80c-0.8-1-1.7-2-2.7-3l-0.8,0.7
		c0.9,1,1.8,2,2.6,3.1c-0.9,0.7-2,1-3.3,1c-1.8,0-3.2-0.6-4.2-1.8c-1-1.1-1.4-2.6-1.4-4.5c0-1.9,0.5-3.4,1.5-4.5
		c1-1.2,2.4-1.8,4.2-1.8c1.8,0,3.1,0.6,4.1,1.8c1,1.1,1.5,2.7,1.5,4.6C127,77.3,126.5,78.8,125.6,80z"/>
	<rect x="131.7" y="68.2" class="st0" width="1.2" height="14.4"/>
	<path class="st0" d="M141.3,68.2l-5.8,14.4h1.4l1.7-4.3h7l1.7,4.3h1.4l-5.8-14.4H141.3z M138.9,77.3l3.1-7.7h0.1l3,7.7H138.9z"/>
	<polygon class="st0" points="161.1,80.7 161,80.7 152.3,68.2 150.9,68.2 150.9,82.6 152.1,82.6 152.1,70 152.2,70 161,82.6 
		162.3,82.6 162.3,68.2 161.1,68.2 	"/>
	<polygon class="st0" points="167.4,68.2 166.2,68.2 166.2,82.6 176.1,82.6 176.1,81.5 167.4,81.5 	"/>
	<rect x="179.1" y="68.2" class="st0" width="1.2" height="14.4"/>
	<polygon class="st0" points="190.9,69.3 196.2,69.3 196.2,82.6 197.5,82.6 197.5,69.3 202.8,69.3 202.8,68.2 190.9,68.2 	"/>
	<polygon class="st0" points="206.8,75.7 215.2,75.7 215.2,74.6 206.8,74.6 206.8,69.3 215.6,69.3 215.6,68.2 205.5,68.2 
		205.5,82.6 216,82.6 216,81.5 206.8,81.5 	"/>
	<path class="st0" d="M228.5,80.8c-0.9,0.7-2,1-3.2,1c-1.7,0-3.1-0.6-4.1-1.8c-0.9-1.1-1.4-2.6-1.4-4.5c0-1.9,0.5-3.4,1.4-4.5
		c1-1.3,2.4-1.9,4.2-1.9c1.2,0,2.2,0.3,3.1,0.9c0.9,0.6,1.5,1.5,1.6,2.6h1.2c-0.2-1.4-0.8-2.5-2-3.4c-1.1-0.8-2.4-1.3-3.9-1.3
		c-2.2,0-3.9,0.8-5.1,2.3c-1.1,1.4-1.7,3.1-1.7,5.3s0.6,3.9,1.7,5.2c1.2,1.5,2.9,2.2,5.1,2.2c1.5,0,2.8-0.4,3.9-1.3
		c1.2-0.9,2-2.3,2.3-3.9h-1.2C230.1,79,229.5,80,228.5,80.8z"/>
	<polygon class="st0" points="245,74.6 236,74.6 236,68.2 234.8,68.2 234.8,82.6 236,82.6 236,75.7 245,75.7 245,82.6 246.2,82.6 
		246.2,68.2 245,68.2 	"/>
	<polygon class="st0" points="260.3,80.7 260.2,80.7 251.5,68.2 250.1,68.2 250.1,82.6 251.3,82.6 251.3,70 251.4,70 260.2,82.6 
		261.5,82.6 261.5,68.2 260.3,68.2 	"/>
	<path class="st0" d="M271.7,67.9c-2.1,0-3.8,0.7-5.1,2.2c-1.2,1.4-1.8,3.1-1.8,5.3c0,2.2,0.6,3.9,1.8,5.3c1.2,1.5,2.9,2.2,5.1,2.2
		c2.1,0,3.8-0.7,5.1-2.2c1.2-1.4,1.8-3.2,1.8-5.3c0-2.2-0.6-3.9-1.8-5.3C275.5,68.6,273.8,67.9,271.7,67.9z M275.8,80
		c-1,1.2-2.4,1.8-4.1,1.8c-1.8,0-3.2-0.6-4.2-1.8c-1-1.1-1.4-2.6-1.4-4.5c0-1.9,0.5-3.4,1.5-4.5c1-1.2,2.4-1.8,4.2-1.8
		c1.8,0,3.1,0.6,4.1,1.8c1,1.1,1.5,2.7,1.5,4.6C277.2,77.3,276.7,78.8,275.8,80z"/>
	<polygon class="st0" points="283,68.2 281.7,68.2 281.7,82.6 291.6,82.6 291.6,81.5 283,81.5 	"/>
	<path class="st0" d="M300.7,67.9c-2.1,0-3.8,0.7-5.1,2.2c-1.2,1.4-1.8,3.1-1.8,5.3c0,2.2,0.6,3.9,1.8,5.3c1.2,1.5,2.9,2.2,5.1,2.2
		c2.1,0,3.8-0.7,5.1-2.2c1.2-1.4,1.8-3.2,1.8-5.3c0-2.2-0.6-3.9-1.8-5.3C304.5,68.6,302.8,67.9,300.7,67.9z M304.9,80
		c-1,1.2-2.4,1.8-4.1,1.8c-1.8,0-3.2-0.6-4.2-1.8c-1-1.1-1.4-2.6-1.4-4.5c0-1.9,0.5-3.4,1.5-4.5c1-1.2,2.4-1.8,4.2-1.8
		c1.8,0,3.1,0.6,4.1,1.8c1,1.1,1.5,2.7,1.5,4.6C306.3,77.3,305.8,78.8,304.9,80z"/>
	<path class="st0" d="M316.9,69c1.4,0,2.5,0.4,3.4,1.1c0.8,0.7,1.3,1.6,1.5,2.8h1.3c-0.3-1.6-0.9-2.7-1.9-3.6
		c-1.1-0.9-2.5-1.4-4.3-1.4c-2.1,0-3.8,0.8-5,2.3c-1.1,1.4-1.7,3.2-1.7,5.3c0,2.1,0.6,3.9,1.7,5.2c1.3,1.5,3,2.2,5.3,2.2
		c1.1,0,2.2-0.2,3.3-0.5c1-0.3,1.8-0.7,2.5-1.3v-5.8h-6.2v1.1h4.9v4.1c-0.5,0.3-1.1,0.6-2,0.9c-0.8,0.2-1.6,0.4-2.5,0.4
		c-1.9,0-3.4-0.6-4.4-1.8c-1-1.1-1.5-2.6-1.5-4.5c0-1.9,0.5-3.5,1.5-4.6C313.9,69.6,315.2,69,316.9,69z"/>
	<polygon class="st0" points="336.7,68.2 331.8,75.5 326.9,68.2 325.4,68.2 331.2,76.7 331.2,82.6 332.4,82.6 332.4,76.7 
		338.2,68.2 	"/>
</g>
<g>
	<path class="st0" d="M85.4,60.1L56,30.7c0,0-0.1-0.1-0.1-0.1l0,0l0,0c-0.7-0.6-1.6-1-2.6-1H33.4c-2.1,0-3.9,1.7-3.9,3.9v19.8
		c0,1,0.4,1.9,1,2.6l0,0l0.1,0.1c0,0,0.1,0.1,0.1,0.1l29.3,29.4l0,0c0.7,0.8,1.7,1.2,2.8,1.2h19.8c2.1,0,3.9-1.7,3.9-3.9V62.9
		C86.6,61.8,86.1,60.8,85.4,60.1L85.4,60.1z M52.7,52.7H33.6h0V33.6h19.1v0V52.7z"/>
	<path class="st0" d="M85.4,24.2L62.3,1.2C61.6,0.4,60.6,0,59.6,0H27c-1,0-2,0.4-2.7,1.1L1.2,24.2C0.4,25,0,25.9,0,27v32.6
		c0,1,0.4,2,1.1,2.7l23.1,23.1c0.7,0.7,1.7,1.1,2.7,1.1h28.5l-6.8-6.8H28.2L6.8,58.4V28.2L28.2,6.8h30.2l21.4,21.4v20.5l6.8,6.8V27
		C86.6,25.9,86.2,25,85.4,24.2z"/>
</g>
</svg>
